#!OML:ASF E:/inclinewalkrobotboard/Project1/Captureday1/Session1/subject1.ASF
:FULLY-SPECIFIED
:DEGREES
288
root 0 0 0 -3.7591610533420003 -2.4292527733536367 1.8063764833089455
lowerback 10.727509615044955 -0.4009731151451109 -3.0815548124133283
upperback 0.3738593987909254 -0.8568007353034577 0.9408557097202401
thorax -5.64641794682546 -0.33609837194531156 2.8539684372391565
lowerneck -17.239630921857533 -2.409952886993041 -2.145643812337158
upperneck 18.603193208943296 -2.8625365570015724 0.24876051834446233
head 8.70936582218345 -1.4569450696048623 0.08009835807285798
rclavicle -2.0796821047852523E-15 -2.232359393840335E-16
rhumerus -34.32530241611837 -22.373105112369288 -78.59045177167681
rradius 19.632654879289483
rwrist 7.412682969674706
rhand -17.920405176423937 25.803088655140932
rfingers 7.125020000000024
rthumb 8.342552941935718 -4.007334730077609
lclavicle -1.8816150658060507E-15 -6.616497798703488E-16
lhumerus -32.903438270799356 3.134811795263522 79.44369442573193
lradius 26.16629675940711
lwrist 4.454706989206317
lhand -27.059000664498548 24.644885092969822
lfingers 7.125020000000012
lthumb -0.4899597673281235 54.61518182921455
rfemur -34.30298814964443 -0.3313349951048501 19.19475661761082
rtibia 56.842682495758154
rfoot -6.752191923265789 -8.629666955503687
rtoes 1.7991567852198596
lfemur 5.762746082948422 -3.2200349580144536 -28.842331197423075
ltibia 20.225891424958412
lfoot -18.574646624626794 0.8787015766753385
ltoes -1.4584936298371005
289
root 0 0 0 -2.4792069175930944 -1.338895915787199 2.305696620039529
lowerback 10.45778141267048 -0.8794290573093381 -3.8351827828417298
upperback 0.5955703877450058 -1.5622224466105485 1.1432492501829334
thorax -5.1881709118188235 -0.668691990194261 3.5768359771250258
lowerneck -16.606574359132303 -2.3300022536832232 -2.0555788579574843
upperneck 19.008784812332976 -2.6756435747701 0.022659498490558594
head 8.683455362361219 -1.396319742322117 0.013122890193609071
rclavicle -7.860751359998356E-16 -3.5243238262924505E-16
rhumerus -34.5141906630103 -22.273143560823357 -78.54876454224024
rradius 19.98906681572759
rwrist 7.085431494898651
rhand -18.02345598024293 25.6078016413787
rfingers 7.125020000000025
rthumb 8.243264798678906 -4.220589643658123
lclavicle -5.607750054205914E-16 -1.0791135962488724E-15
lhumerus -29.202444856415227 -0.7136080236945807 79.71251289548246
lradius 29.706353005754167
lwrist 6.517631752986492
lhand -27.66030174967986 25.750798489238473
lfingers 7.125020000000004
lthumb -1.073312963458127 55.745730925880906
rfemur -34.83200040703041 0.6104747604821041 17.7109618473238
rtibia 47.3833294719115
rfoot -7.290553756730317 -9.837043308946738
rtoes -0.13542209571143204
lfemur 6.428476591985521 -2.9358209670255757 -29.026653771009173
ltibia 20.067948580055607
lfoot -18.68950727137556 0.6916739834739087
ltoes -1.434508115927546
290
root 0 0 0 -1.5876761313517367 -0.4264397310636434 2.6723582170671434
lowerback 10.531389805601044 -1.1778024975544739 -4.429052162307913
upperback 0.5963860651434896 -2.0021138967695524 1.3263855899080195
thorax -5.160108848545552 -0.8739701048877566 4.147229540561296
lowerneck -17.000387932936654 -2.4359578770850474 -2.1247416217287634
upperneck 19.399857025611677 -2.7552841220814157 -0.1959512108830137
head 8.894833884444667 -1.4602475568027675 -0.07193486883953171
rclavicle 2.365180119048238E-16 1.6490503721965792E-16
rhumerus -34.75125760942228 -22.557200227783955 -78.23167968358084
rradius 20.249297326931426
rwrist 6.416304074254993
rhand -18.141558559285244 25.22835984691271
rfingers 7.125020000000027
rthumb 8.130393702666975 -4.616499922246426
lclavicle 7.076689797395708E-17 -5.988008662725847E-16
lhumerus -27.126332386459936 -2.6673479879483133 80.11470033856187
lradius 31.354333925496544
lwrist 7.321727840204048
lhand -27.8311278290211 26.12877555451885
lfingers 7.125019999999999
lthumb -1.2440045225510081 56.138374733995086
rfemur -34.93760535410987 3.129108768376046 18.572356417833983
rtibia 35.03211748622664
rfoot -8.723135679931062 -11.635674134254359
rtoes -1.3125350980003503
lfemur 7.370161578090154 -2.870287282828182 -28.94473687762666
ltibia 19.831610731249114
lfoot -17.99642809755094 0.04400160145993137
ltoes -1.9476794663629917
291
root 0 0 0 -1.3063651289762628 0.09802525727904099 2.705086873912086
lowerback 10.613754803961003 -1.316977785287118 -4.573597368701018
upperback 0.601994437098775 -2.188525959213637 1.4461059968292511
thorax -5.160067344427314 -0.9644158372587899 4.373201839254305
lowerneck -17.469716119346575 -2.523119267763137 -2.235616121702477
upperneck 19.486600751475887 -2.8699683134271345 -0.18454314265914284
head 9.024130496489775 -1.5127750787378758 -0.07383043790645483
rclavicle -2.3785788703726392E-16 5.753271637120451E-16
rhumerus -35.033392333843 -23.10097274547398 -77.87776525857065
rradius 19.963828755259875
rwrist 6.198937762577015
rhand -18.148971103321603 25.066124124135406
rfingers 7.125020000000026
rthumb 8.123684166691158 -4.775963676806672
lclavicle -6.399610956372791E-16 -1.4431644774796972E-16
lhumerus -26.49367559128007 -3.3005430472497306 80.38329788214922
lradius 31.794813777949287
lwrist 7.463315775499293
lhand -27.832113382745376 26.030302727775016
lfingers 7.125019999999996
lthumb -1.2474549262791967 56.03979366772445
rfemur -34.5143946965291 5.340893247365739 20.11768292393481
rtibia 25.701340734991305
rfoot -10.009069331697408 -12.859248981259556
rtoes -2.3124050266695555
lfemur 9.265303332217318 -3.0562919851556813 -28.684036186188763
ltibia 19.635870545759772
lfoot -16.299951981464716 -1.3755906769688493
ltoes -3.1394845197294643
292
root 0 0 0 -1.3502370035724662 0.4386280035767225 2.21047325058738
lowerback 10.533990030761112 -1.4253330570524096 -4.197003989833963
upperback 0.5036958141258578 -2.2730994711194032 1.6268896837007314
thorax -5.209080707719457 -1.0154605320069408 4.363561235146442
lowerneck -17.8133648376429 -2.515500949772379 -2.2407926363066433
upperneck 19.64993787278418 -2.8815375954440237 -0.2111280863106304
head 9.147081192433097 -1.5090979523846084 -0.08930119006309678
rclavicle -9.584205267293937E-16 6.536212165895191E-16
rhumerus -35.374554998620305 -23.68364150766697 -77.60071147760787
rradius 19.3461571259392
rwrist 6.633655285562262
rhand -18.072807525542245 25.10148497778917
rfingers 7.125020000000025
rthumb 8.196849849154582 -4.727925642606376
lclavicle -1.6041259634283384E-15 -4.2845128956791145E-17
lhumerus -26.597919807132598 -3.36278285623129 80.51561427304935
lradius 31.790913563137032
lwrist 7.497797044125454
lhand -27.84093462470824 25.949545433734514
lfingers 7.125019999999995
lthumb -1.2565158413242248 55.957664895662234
rfemur -32.876811668847935 5.835826475185615 20.486168732980705
rtibia 23.527650565561824
rfoot -9.656395735535064 -12.15626200231293
rtoes -2.4415100429679066
lfemur 11.881656034641153 -3.413941995356016 -28.310392596929695
ltibia 19.862697461645215
lfoot -13.655499528319062 -3.5731268995094596
ltoes -4.996220374590006
